<svg id="visual" viewBox="0 0 960 540" width="960" height="540" xmlns="http://www.w3.org/2000/svg" xmlns:xlink="http://www.w3.org/1999/xlink" version="1.1"><path d="M0 185L14.5 176.8C29 168.7 58 152.3 87.2 137.8C116.3 123.3 145.7 110.7 174.8 117C204 123.3 233 148.7 262 151.3C291 154 320 134 349 127.7C378 121.3 407 128.7 436.2 133.2C465.3 137.7 494.7 139.3 523.8 149.2C553 159 582 177 611 167.2C640 157.3 669 119.7 698 114.3C727 109 756 136 785.2 154.8C814.3 173.7 843.7 184.3 872.8 178C902 171.7 931 148.3 945.5 136.7L960 125L960 0L945.5 0C931 0 902 0 872.8 0C843.7 0 814.3 0 785.2 0C756 0 727 0 698 0C669 0 640 0 611 0C582 0 553 0 523.8 0C494.7 0 465.3 0 436.2 0C407 0 378 0 349 0C320 0 291 0 262 0C233 0 204 0 174.8 0C145.7 0 116.3 0 87.2 0C58 0 29 0 14.5 0L0 0Z" fill="#6198ff"></path><path d="M0 320L14.5 307.3C29 294.7 58 269.3 87.2 246.8C116.3 224.3 145.7 204.7 174.8 203.8C204 203 233 221 262 221C291 221 320 203 349 193C378 183 407 181 436.2 184.5C465.3 188 494.7 197 523.8 220.5C553 244 582 282 611 282C640 282 669 244 698 227.7C727 211.3 756 216.7 785.2 223C814.3 229.3 843.7 236.7 872.8 238.5C902 240.3 931 236.7 945.5 234.8L960 233L960 123L945.5 134.7C931 146.3 902 169.7 872.8 176C843.7 182.3 814.3 171.7 785.2 152.8C756 134 727 107 698 112.3C669 117.7 640 155.3 611 165.2C582 175 553 157 523.8 147.2C494.7 137.3 465.3 135.7 436.2 131.2C407 126.7 378 119.3 349 125.7C320 132 291 152 262 149.3C233 146.7 204 121.3 174.8 115C145.7 108.7 116.3 121.3 87.2 135.8C58 150.3 29 166.7 14.5 174.8L0 183Z" fill="#3c80ff"></path><path d="M0 395L14.5 378.8C29 362.7 58 330.3 87.2 310.5C116.3 290.7 145.7 283.3 174.8 283.3C204 283.3 233 290.7 262 285.3C291 280 320 262 349 253C378 244 407 244 436.2 252.2C465.3 260.3 494.7 276.7 523.8 304.5C553 332.3 582 371.7 611 369.8C640 368 669 325 698 308.8C727 292.7 756 303.3 785.2 306.8C814.3 310.3 843.7 306.7 872.8 300.3C902 294 931 285 945.5 280.5L960 276L960 231L945.5 232.8C931 234.7 902 238.3 872.8 236.5C843.7 234.7 814.3 227.3 785.2 221C756 214.7 727 209.3 698 225.7C669 242 640 280 611 280C582 280 553 242 523.8 218.5C494.7 195 465.3 186 436.2 182.5C407 179 378 181 349 191C320 201 291 219 262 219C233 219 204 201 174.8 201.8C145.7 202.7 116.3 222.3 87.2 244.8C58 267.3 29 292.7 14.5 305.3L0 318Z" fill="#0066ff"></path><path d="M0 471L14.5 476.3C29 481.7 58 492.3 87.2 490.5C116.3 488.7 145.7 474.3 174.8 469.8C204 465.3 233 470.7 262 474.3C291 478 320 480 349 472.8C378 465.7 407 449.3 436.2 448.3C465.3 447.3 494.7 461.7 523.8 469.8C553 478 582 480 611 473.7C640 467.3 669 452.7 698 447.2C727 441.7 756 445.3 785.2 450.8C814.3 456.3 843.7 463.7 872.8 467.3C902 471 931 471 945.5 471L960 471L960 274L945.5 278.5C931 283 902 292 872.8 298.3C843.7 304.7 814.3 308.3 785.2 304.8C756 301.3 727 290.7 698 306.8C669 323 640 366 611 367.8C582 369.7 553 330.3 523.8 302.5C494.7 274.7 465.3 258.3 436.2 250.2C407 242 378 242 349 251C320 260 291 278 262 283.3C233 288.7 204 281.3 174.8 281.3C145.7 281.3 116.3 288.7 87.2 308.5C58 328.3 29 360.7 14.5 376.8L0 393Z" fill="#0059dd"></path><path d="M0 541L14.5 541C29 541 58 541 87.2 541C116.3 541 145.7 541 174.8 541C204 541 233 541 262 541C291 541 320 541 349 541C378 541 407 541 436.2 541C465.3 541 494.7 541 523.8 541C553 541 582 541 611 541C640 541 669 541 698 541C727 541 756 541 785.2 541C814.3 541 843.7 541 872.8 541C902 541 931 541 945.5 541L960 541L960 469L945.5 469C931 469 902 469 872.8 465.3C843.7 461.7 814.3 454.3 785.2 448.8C756 443.3 727 439.7 698 445.2C669 450.7 640 465.3 611 471.7C582 478 553 476 523.8 467.8C494.7 459.7 465.3 445.3 436.2 446.3C407 447.3 378 463.7 349 470.8C320 478 291 476 262 472.3C233 468.7 204 463.3 174.8 467.8C145.7 472.3 116.3 486.7 87.2 488.5C58 490.3 29 479.7 14.5 474.3L0 469Z" fill="#004cbb"></path></svg>