<svg id="visual" viewBox="0 0 960 540" width="960" height="540" xmlns="http://www.w3.org/2000/svg" xmlns:xlink="http://www.w3.org/1999/xlink" version="1.1"><rect x="0" y="0" width="960" height="540" fill="#f000ff"></rect><g transform="translate(482.4036518791325 239.30605489222336)"><path d="M122.7 -158.6C159.1 -142.3 188.9 -106.7 209.2 -63.4C229.5 -20.2 240.3 30.7 223.9 70.2C207.6 109.7 164 137.8 122.2 169.2C80.3 200.6 40.2 235.3 2.2 232.3C-35.9 229.4 -71.7 188.7 -112.9 157.1C-154.1 125.5 -200.7 102.9 -222.2 65.4C-243.8 27.9 -240.3 -24.5 -218.1 -64.1C-195.9 -103.6 -155 -130.3 -115.5 -145.6C-76 -160.9 -38 -164.8 2.5 -168.3C43.1 -171.8 86.2 -174.9 122.7 -158.6" fill="#c41b96"></path></g></svg>