<svg id="visual" viewBox="0 0 960 540" width="960" height="540" xmlns="http://www.w3.org/2000/svg" xmlns:xlink="http://www.w3.org/1999/xlink" version="1.1"><rect x="0" y="0" width="960" height="540" fill="#001220"></rect><path d="M0 392L22.8 384C45.7 376 91.3 360 137 349.7C182.7 339.3 228.3 334.7 274 344.2C319.7 353.7 365.3 377.3 411.2 387C457 396.7 503 392.3 548.8 389.5C594.7 386.7 640.3 385.3 686 387.5C731.7 389.7 777.3 395.3 823 390C868.7 384.7 914.3 368.3 937.2 360.2L960 352L960 541L937.2 541C914.3 541 868.7 541 823 541C777.3 541 731.7 541 686 541C640.3 541 594.7 541 548.8 541C503 541 457 541 411.2 541C365.3 541 319.7 541 274 541C228.3 541 182.7 541 137 541C91.3 541 45.7 541 22.8 541L0 541Z" fill="#fa7268"></path><path d="M0 422L22.8 419.2C45.7 416.3 91.3 410.7 137 405.7C182.7 400.7 228.3 396.3 274 396.7C319.7 397 365.3 402 411.2 395.7C457 389.3 503 371.7 548.8 371C594.7 370.3 640.3 386.7 686 397C731.7 407.3 777.3 411.7 823 403.5C868.7 395.3 914.3 374.7 937.2 364.3L960 354L960 541L937.2 541C914.3 541 868.7 541 823 541C777.3 541 731.7 541 686 541C640.3 541 594.7 541 548.8 541C503 541 457 541 411.2 541C365.3 541 319.7 541 274 541C228.3 541 182.7 541 137 541C91.3 541 45.7 541 22.8 541L0 541Z" fill="#ef5f67"></path><path d="M0 428L22.8 427.3C45.7 426.7 91.3 425.3 137 427.3C182.7 429.3 228.3 434.7 274 439.8C319.7 445 365.3 450 411.2 449.5C457 449 503 443 548.8 437.5C594.7 432 640.3 427 686 426.3C731.7 425.7 777.3 429.3 823 429.2C868.7 429 914.3 425 937.2 423L960 421L960 541L937.2 541C914.3 541 868.7 541 823 541C777.3 541 731.7 541 686 541C640.3 541 594.7 541 548.8 541C503 541 457 541 411.2 541C365.3 541 319.7 541 274 541C228.3 541 182.7 541 137 541C91.3 541 45.7 541 22.8 541L0 541Z" fill="#e34c67"></path><path d="M0 446L22.8 444C45.7 442 91.3 438 137 438.2C182.7 438.3 228.3 442.7 274 447C319.7 451.3 365.3 455.7 411.2 461.3C457 467 503 474 548.8 469.7C594.7 465.3 640.3 449.7 686 447.8C731.7 446 777.3 458 823 459.7C868.7 461.3 914.3 452.7 937.2 448.3L960 444L960 541L937.2 541C914.3 541 868.7 541 823 541C777.3 541 731.7 541 686 541C640.3 541 594.7 541 548.8 541C503 541 457 541 411.2 541C365.3 541 319.7 541 274 541C228.3 541 182.7 541 137 541C91.3 541 45.7 541 22.8 541L0 541Z" fill="#d53867"></path><path d="M0 515L22.8 513C45.7 511 91.3 507 137 504.3C182.7 501.7 228.3 500.3 274 500.5C319.7 500.7 365.3 502.3 411.2 499.7C457 497 503 490 548.8 489.7C594.7 489.3 640.3 495.7 686 499.5C731.7 503.3 777.3 504.7 823 506.7C868.7 508.7 914.3 511.3 937.2 512.7L960 514L960 541L937.2 541C914.3 541 868.7 541 823 541C777.3 541 731.7 541 686 541C640.3 541 594.7 541 548.8 541C503 541 457 541 411.2 541C365.3 541 319.7 541 274 541C228.3 541 182.7 541 137 541C91.3 541 45.7 541 22.8 541L0 541Z" fill="#c62368"></path></svg>