<svg id="visual" viewBox="0 0 960 540" width="960" height="540" xmlns="http://www.w3.org/2000/svg" xmlns:xlink="http://www.w3.org/1999/xlink" version="1.1"><rect x="0" y="0" width="960" height="540" fill="#001220"></rect><defs><linearGradient id="grad1_0" x1="43.8%" y1="0%" x2="100%" y2="100%"><stop offset="14.444444444444446%" stop-color="#001220" stop-opacity="1"></stop><stop offset="85.55555555555554%" stop-color="#001220" stop-opacity="1"></stop></linearGradient></defs><defs><linearGradient id="grad2_0" x1="0%" y1="0%" x2="56.3%" y2="100%"><stop offset="14.444444444444446%" stop-color="#001220" stop-opacity="1"></stop><stop offset="85.55555555555554%" stop-color="#001220" stop-opacity="1"></stop></linearGradient></defs><g transform="translate(960, 0)"><path d="M0 486C-63.4 479 -126.7 472.1 -186 449C-245.2 425.9 -300.3 386.8 -338 338C-375.6 289.2 -395.8 230.9 -417.6 173C-439.3 115 -462.7 57.5 -486 0L0 0Z" fill="#FBAE3C"></path></g><g transform="translate(0, 540)"><path d="M0 -486C68.2 -484.8 136.4 -483.5 186 -449C235.5 -414.5 266.4 -346.6 293.4 -293.4C320.5 -240.3 343.6 -201.8 375.1 -155.4C406.5 -108.9 446.3 -54.5 486 0L0 0Z" fill="#FBAE3C"></path></g></svg>