<svg id="visual" viewBox="0 0 960 540" width="960" height="540" xmlns="http://www.w3.org/2000/svg" xmlns:xlink="http://www.w3.org/1999/xlink" version="1.1"><rect x="0" y="0" width="960" height="540" fill="#3f1cdd"></rect><g transform="translate(457.6843758697996 279.6026673513089)"><path d="M93.6 -149C132.6 -139.7 183.2 -137.3 204.6 -113.7C225.9 -90 217.9 -45 208.4 -5.5C198.9 34 187.8 68 165 89.2C142.3 110.4 107.9 118.9 78.4 137.4C49 155.9 24.5 184.4 -2.6 188.9C-29.7 193.4 -59.3 173.8 -81.7 151.2C-104.1 128.6 -119.2 103.1 -137.2 77.4C-155.2 51.7 -176.1 25.8 -173.2 1.7C-170.3 -22.5 -143.6 -45 -133.2 -83.8C-122.8 -122.7 -128.6 -177.8 -109.2 -198.4C-89.7 -219 -44.8 -205 -8.8 -189.8C27.3 -174.7 54.7 -158.4 93.6 -149" fill="#4FACF7"></path></g></svg>